#Comment line ignore any data following # character 
#Hierarchical Translation and Rotation (.htr) file 
[Header]	
#Header keywords are followed by a single value 
FileType HTR		#Single word string
DataType HTRS		#Translation followed by rotation and scale data
FileVersion 1		#integer
NumSegments 84		#integer
NumFrames 2		#integer
DataFrameRate 30		#integer, data frame rate in this file
EulerRotationOrder ZYX
CalibrationUnits mm
RotationUnits Degrees
GlobalAxisofGravity Y
BoneLengthAxis Y
ScaleFactor 1.00
[SegmentNames&Hierarchy]
#CHILD	PARENT
MASTER GLOBAL
root MASTER
chest root
L_mid_tent01 root
R_mid_tent01 root
spine01 root
Bip01_Neck chest
L_humerus chest
R_humerus chest
weapon_bone chest
Bip01_Head Bip01_Neck
eye_left_bone Bip01_Head
eye_right_bone Bip01_Head
L_forearm L_humerus
L_front_hand L_forearm
L_weapon_bone L_forearm
L_front_hand01_01 L_front_hand
L_front_hand02_01 L_front_hand
L_front_hand03_01 L_front_hand
L_front_hand01_02 L_front_hand01_01
L_front_hand02_02 L_front_hand02_01
L_front_hand03_02 L_front_hand03_01
R_forearm R_humerus
R_front_hand R_forearm
R_weapon_bone R_forearm
R_front_hand01_01 R_front_hand
R_front_hand02_01 R_front_hand
R_front_hand03_01 R_front_hand
R_front_hand01_02 R_front_hand01_01
R_front_hand02_02 R_front_hand02_01
R_front_hand03_02 R_front_hand03_01
null_rope01_connect L_mid_tent01
Rope1_Seg01 null_rope01_connect
Rope1_Seg02 Rope1_Seg01
Rope1_Seg03 Rope1_Seg02
Rope1_Seg04 Rope1_Seg03
Rope1_Seg05 Rope1_Seg04
Rope1_Seg06 Rope1_Seg05
Rope1_Seg07 Rope1_Seg06
Rope1_Seg09 Rope1_Seg07
L_mid_hand01 Rope1_Seg09
L_mid_hand02 Rope1_Seg09
L_mid_hand03 Rope1_Seg09
null_rope02_connect R_mid_tent01
Rope2_Seg01 null_rope02_connect
Rope2_Seg02 Rope2_Seg01
Rope2_Seg03 Rope2_Seg02
Rope2_Seg04 Rope2_Seg03
Rope2_Seg05 Rope2_Seg04
Rope2_Seg06 Rope2_Seg05
Rope2_Seg07 Rope2_Seg06
Rope2_Seg09 Rope2_Seg07
R_mid_hand01 Rope2_Seg09
R_mid_hand02 Rope2_Seg09
R_mid_hand03 Rope2_Seg09
spine02 spine01
spine03 spine02
pelvis spine03
null_rope03_connect pelvis
null_rope04_connect pelvis
Rope3_Seg01 null_rope03_connect
Rope3_Seg02 Rope3_Seg01
Rope3_Seg03 Rope3_Seg02
Rope3_Seg04 Rope3_Seg03
Rope3_Seg05 Rope3_Seg04
Rope3_Seg06 Rope3_Seg05
Rope3_Seg07 Rope3_Seg06
Rope3_Seg08 Rope3_Seg07
Rope3_Seg09 Rope3_Seg08
R_rear_hand01 Rope3_Seg09
R_rear_hand02 Rope3_Seg09
R_rear_hand03 Rope3_Seg09
Rope4_Seg01 null_rope04_connect
Rope4_Seg02 Rope4_Seg01
Rope4_Seg03 Rope4_Seg02
Rope4_Seg04 Rope4_Seg03
Rope4_Seg05 Rope4_Seg04
Rope4_Seg06 Rope4_Seg05
Rope4_Seg07 Rope4_Seg06
Rope4_Seg08 Rope4_Seg07
Rope4_Seg09 Rope4_Seg08
L_rear_hand01 Rope4_Seg09
L_rear_hand02 Rope4_Seg09
L_rear_hand03 Rope4_Seg09
[BasePosition]
#SegmentName Tx, Ty, Tz, Rx, Ry, Rz, BoneLength
MASTER 0.000000 0.000000 0.000000 -90.000000 0.000000 0.000000 10.000000 
root 0.000000 0.000000 0.000000 0.000000 0.000000 0.000000 10.000000 
chest 0.000000 0.000000 0.000000 0.000000 0.000000 0.000000 10.000000 
L_mid_tent01 0.000000 0.000000 0.000000 0.000000 0.000000 0.000000 10.000000 
R_mid_tent01 0.000000 0.000000 0.000000 0.000000 0.000000 0.000000 10.000000 
spine01 0.000000 0.000000 0.000000 0.000000 0.000000 0.000000 10.000000 
Bip01_Neck 0.000000 0.000000 0.000000 0.000000 0.000000 0.000000 10.000000 
L_humerus 0.000000 0.000000 0.000000 0.000000 0.000000 0.000000 10.000000 
R_humerus 0.000000 0.000000 0.000000 0.000000 0.000000 0.000000 10.000000 
weapon_bone 0.000000 0.000000 0.000000 0.000000 0.000000 0.000000 10.000000 
Bip01_Head 0.000000 0.000000 0.000000 0.000000 0.000000 0.000000 10.000000 
eye_left_bone 0.000000 0.000000 0.000000 0.000000 0.000000 0.000000 10.000000 
eye_right_bone 0.000000 0.000000 0.000000 0.000000 0.000000 0.000000 10.000000 
L_forearm 0.000000 0.000000 0.000000 0.000000 0.000000 0.000000 10.000000 
L_front_hand 0.000000 0.000000 0.000000 0.000000 0.000000 0.000000 10.000000 
L_weapon_bone 0.000000 0.000000 0.000000 0.000000 0.000000 0.000000 10.000000 
L_front_hand01_01 0.000000 0.000000 0.000000 0.000000 0.000000 0.000000 10.000000 
L_front_hand02_01 0.000000 0.000000 0.000000 0.000000 0.000000 0.000000 10.000000 
L_front_hand03_01 0.000000 0.000000 0.000000 0.000000 0.000000 0.000000 10.000000 
L_front_hand01_02 0.000000 0.000000 0.000000 0.000000 0.000000 0.000000 10.000000 
L_front_hand02_02 0.000000 0.000000 0.000000 0.000000 0.000000 0.000000 10.000000 
L_front_hand03_02 0.000000 0.000000 0.000000 0.000000 0.000000 0.000000 10.000000 
R_forearm 0.000000 0.000000 0.000000 0.000000 0.000000 0.000000 10.000000 
R_front_hand 0.000000 0.000000 0.000000 0.000000 0.000000 0.000000 10.000000 
R_weapon_bone 0.000000 0.000000 0.000000 0.000000 0.000000 0.000000 10.000000 
R_front_hand01_01 0.000000 0.000000 0.000000 0.000000 0.000000 0.000000 10.000000 
R_front_hand02_01 0.000000 0.000000 0.000000 0.000000 0.000000 0.000000 10.000000 
R_front_hand03_01 0.000000 0.000000 0.000000 0.000000 0.000000 0.000000 10.000000 
R_front_hand01_02 0.000000 0.000000 0.000000 0.000000 0.000000 0.000000 10.000000 
R_front_hand02_02 0.000000 0.000000 0.000000 0.000000 0.000000 0.000000 10.000000 
R_front_hand03_02 0.000000 0.000000 0.000000 0.000000 0.000000 0.000000 10.000000 
null_rope01_connect 0.000000 0.000000 0.000000 0.000000 0.000000 0.000000 10.000000 
Rope1_Seg01 0.000000 0.000000 0.000000 0.000000 0.000000 0.000000 10.000000 
Rope1_Seg02 0.000000 0.000000 0.000000 0.000000 0.000000 0.000000 10.000000 
Rope1_Seg03 0.000000 0.000000 0.000000 0.000000 0.000000 0.000000 10.000000 
Rope1_Seg04 0.000000 0.000000 0.000000 0.000000 0.000000 0.000000 10.000000 
Rope1_Seg05 0.000000 0.000000 0.000000 0.000000 0.000000 0.000000 10.000000 
Rope1_Seg06 0.000000 0.000000 0.000000 0.000000 0.000000 0.000000 10.000000 
Rope1_Seg07 0.000000 0.000000 0.000000 0.000000 0.000000 0.000000 10.000000 
Rope1_Seg09 0.000000 0.000000 0.000000 0.000000 0.000000 0.000000 10.000000 
L_mid_hand01 0.000000 0.000000 0.000000 0.000000 0.000000 0.000000 10.000000 
L_mid_hand02 0.000000 0.000000 0.000000 0.000000 0.000000 0.000000 10.000000 
L_mid_hand03 0.000000 0.000000 0.000000 0.000000 0.000000 0.000000 10.000000 
null_rope02_connect 0.000000 0.000000 0.000000 0.000000 0.000000 0.000000 10.000000 
Rope2_Seg01 0.000000 0.000000 0.000000 0.000000 0.000000 0.000000 10.000000 
Rope2_Seg02 0.000000 0.000000 0.000000 0.000000 0.000000 0.000000 10.000000 
Rope2_Seg03 0.000000 0.000000 0.000000 0.000000 0.000000 0.000000 10.000000 
Rope2_Seg04 0.000000 0.000000 0.000000 0.000000 0.000000 0.000000 10.000000 
Rope2_Seg05 0.000000 0.000000 0.000000 0.000000 0.000000 0.000000 10.000000 
Rope2_Seg06 0.000000 0.000000 0.000000 0.000000 0.000000 0.000000 10.000000 
Rope2_Seg07 0.000000 0.000000 0.000000 0.000000 0.000000 0.000000 10.000000 
Rope2_Seg09 0.000000 0.000000 0.000000 0.000000 0.000000 0.000000 10.000000 
R_mid_hand01 0.000000 0.000000 0.000000 0.000000 0.000000 0.000000 10.000000 
R_mid_hand02 0.000000 0.000000 0.000000 0.000000 0.000000 0.000000 10.000000 
R_mid_hand03 0.000000 0.000000 0.000000 0.000000 0.000000 0.000000 10.000000 
spine02 0.000000 0.000000 0.000000 0.000000 0.000000 0.000000 10.000000 
spine03 0.000000 0.000000 0.000000 0.000000 0.000000 0.000000 10.000000 
pelvis 0.000000 0.000000 0.000000 0.000000 0.000000 0.000000 10.000000 
null_rope03_connect 0.000000 0.000000 0.000000 0.000000 0.000000 0.000000 10.000000 
null_rope04_connect 0.000000 0.000000 0.000000 0.000000 0.000000 0.000000 10.000000 
Rope3_Seg01 0.000000 0.000000 0.000000 0.000000 0.000000 0.000000 10.000000 
Rope3_Seg02 0.000000 0.000000 0.000000 0.000000 0.000000 0.000000 10.000000 
Rope3_Seg03 0.000000 0.000000 0.000000 0.000000 0.000000 0.000000 10.000000 
Rope3_Seg04 0.000000 0.000000 0.000000 0.000000 0.000000 0.000000 10.000000 
Rope3_Seg05 0.000000 0.000000 0.000000 0.000000 0.000000 0.000000 10.000000 
Rope3_Seg06 0.000000 0.000000 0.000000 0.000000 0.000000 0.000000 10.000000 
Rope3_Seg07 0.000000 0.000000 0.000000 0.000000 0.000000 0.000000 10.000000 
Rope3_Seg08 0.000000 0.000000 0.000000 0.000000 0.000000 0.000000 10.000000 
Rope3_Seg09 0.000000 0.000000 0.000000 0.000000 0.000000 0.000000 10.000000 
R_rear_hand01 0.000000 0.000000 0.000000 0.000000 0.000000 0.000000 10.000000 
R_rear_hand02 0.000000 0.000000 0.000000 0.000000 0.000000 0.000000 10.000000 
R_rear_hand03 0.000000 0.000000 0.000000 0.000000 0.000000 0.000000 10.000000 
Rope4_Seg01 0.000000 0.000000 0.000000 0.000000 0.000000 0.000000 10.000000 
Rope4_Seg02 0.000000 0.000000 0.000000 0.000000 0.000000 0.000000 10.000000 
Rope4_Seg03 0.000000 0.000000 0.000000 0.000000 0.000000 0.000000 10.000000 
Rope4_Seg04 0.000000 0.000000 0.000000 0.000000 0.000000 0.000000 10.000000 
Rope4_Seg05 0.000000 0.000000 0.000000 0.000000 0.000000 0.000000 10.000000 
Rope4_Seg06 0.000000 0.000000 0.000000 0.000000 0.000000 0.000000 10.000000 
Rope4_Seg07 0.000000 0.000000 0.000000 0.000000 0.000000 0.000000 10.000000 
Rope4_Seg08 0.000000 0.000000 0.000000 0.000000 0.000000 0.000000 10.000000 
Rope4_Seg09 0.000000 0.000000 0.000000 0.000000 0.000000 0.000000 10.000000 
L_rear_hand01 0.000000 0.000000 0.000000 0.000000 0.000000 0.000000 10.000000 
L_rear_hand02 0.000000 0.000000 0.000000 0.000000 0.000000 0.000000 10.000000 
L_rear_hand03 0.000000 0.000000 0.000000 0.000000 0.000000 0.000000 10.000000 
#Beginning of Data. Separated by tabs
#Fr	Tx	Ty	Tz	Rx	Ry	Rz	SF
[MASTER]
6 0.000000 0.000000 0.000000 0.001660 0.001660 0.001660 0.000000
7 0.000000 0.000000 0.000000 0.001660 0.001660 0.001660 0.000000
[root]
6 -114.727654 -62.822132 1164.496460 -86.381180 -3.970944 -89.810959 1171.819580
7 -121.567986 -62.822132 1104.244385 -86.418999 -3.837247 -89.836029 1112.690918
[chest]
6 -75.123314 60.474163 -69.344131 0.308109 3.149547 170.764618 118.782349
7 -75.297325 58.721695 -68.058975 -0.175772 4.031114 174.259094 117.260170
[L_mid_tent01]
6 26.668034 22.539301 -245.860458 7.377716 19.735222 95.501640 248.327545
7 26.738457 22.498957 -246.312958 7.621335 17.815218 99.613228 248.779465
[R_mid_tent01]
6 23.228794 24.509907 226.238495 173.288177 -26.896992 90.329361 228.744751
7 23.228794 24.509907 226.238495 173.666748 -29.125441 88.636543 228.744751
[spine01]
6 -0.361383 -0.195265 0.000000 -0.000001 -0.000007 22.052340 0.410763
7 -0.361383 -0.195265 0.000000 -0.000001 -0.000007 22.052340 0.410763
[Bip01_Neck]
6 165.484543 71.581718 0.000119 175.896118 1.177290 24.871183 180.302734
7 165.484543 71.581718 0.000119 175.896118 1.177290 24.871183 180.302734
[L_humerus]
6 -13.983130 -135.272980 -120.471481 -69.110489 9.344276 -162.091339 181.680161
7 -13.983130 -135.272980 -120.471481 -60.909859 12.214499 -158.423813 181.680161
[R_humerus]
6 -13.983309 -135.273102 125.287651 80.284180 -10.404705 -166.392029 184.909012
7 -13.983309 -135.273102 125.287651 71.824883 -14.704603 -163.046280 184.909012
[weapon_bone]
6 235.964890 -300.705902 0.000000 0.000000 -89.951546 -128.212341 382.234833
7 235.964890 -300.705902 0.000000 0.000000 -89.951546 -128.212341 382.234833
[Bip01_Head]
6 173.451080 83.268585 7.920504 2.150083 -6.474684 -24.602436 192.566010
7 173.525467 88.083488 7.585096 2.323395 -6.247992 -24.772934 194.749374
[eye_left_bone]
6 -24.626970 125.451866 -64.772606 0.000000 -90.000000 -99.840431 143.318359
7 -24.626970 125.451866 -64.772606 0.000000 -90.000000 -99.840431 143.318359
[eye_right_bone]
6 -24.626970 125.451866 64.327362 0.000000 -89.960434 80.159386 143.117676
7 -24.626970 125.451866 64.327362 0.000000 -89.960434 80.159386 143.117676
[L_forearm]
6 322.776093 0.000000 -0.000119 0.000448 -0.002304 -112.010941 322.776093
7 322.776093 0.000000 -0.000119 0.000554 -0.002281 -117.305016 322.776093
[L_front_hand]
6 241.149185 -0.042021 -3.300071 -173.734406 1.091111 -65.367165 241.171753
7 241.149185 -0.042021 -3.300071 -172.458694 1.154368 -59.857109 241.171753
[L_weapon_bone]
6 156.183838 0.000000 0.000000 0.000014 0.000007 0.000001 156.183838
7 156.183838 0.000000 0.000000 0.000014 0.000007 0.000001 156.183838
[L_front_hand01_01]
6 86.095154 20.947098 -0.655860 0.396724 -0.451104 -3.569674 88.609184
7 86.095154 20.947098 -0.655860 0.397411 -0.450498 -3.744506 88.609184
[L_front_hand02_01]
6 86.935165 -11.437475 24.513514 116.935585 2.693103 1.019168 91.046425
7 86.935165 -11.437475 24.513514 116.938293 2.848020 1.098336 91.046425
[L_front_hand03_01]
6 86.637497 -14.123976 -20.424902 -118.383575 -3.736779 -0.652353 90.126129
7 86.637497 -14.123976 -20.424902 -118.388695 -3.891006 -0.567486 90.126129
[L_front_hand01_02]
6 71.020905 -0.000179 0.000030 0.001534 0.001777 -8.378850 71.020905
7 71.020905 -0.000179 0.000030 0.001534 0.001777 -8.378850 71.020905
[L_front_hand02_02]
6 71.020927 -0.000119 0.000060 0.001534 0.001777 -8.378850 71.020927
7 71.020927 -0.000119 0.000060 0.001534 0.001777 -8.378850 71.020927
[L_front_hand03_02]
6 71.020905 -0.000060 0.000060 0.001534 0.001777 -8.378850 71.020905
7 71.020905 -0.000060 0.000060 0.001534 0.001777 -8.378850 71.020905
[R_forearm]
6 322.776428 -0.000060 0.000030 0.206503 0.060919 -107.321671 322.776428
7 322.776428 -0.000060 0.000030 0.197280 0.081713 -113.613770 322.776428
[R_front_hand]
6 238.847015 -0.006795 2.210259 -6.536435 -1.846928 -76.359444 238.857239
7 238.847015 -0.006795 2.210259 -8.092934 -1.895305 -70.131454 238.857239
[R_weapon_bone]
6 155.664093 0.002503 -0.000030 0.003487 0.001180 -90.988930 155.664078
7 155.664093 0.002503 -0.000030 0.003487 0.001180 -90.988930 155.664078
[R_front_hand01_01]
6 87.624611 14.231146 22.918642 -116.937813 2.771578 -0.951691 91.683487
7 87.624611 14.231146 22.918642 -116.940247 2.894645 -1.013630 91.683487
[R_front_hand02_01]
6 89.356956 14.367283 -19.491137 118.395607 -3.536756 0.997326 92.579636
7 89.356956 14.367283 -19.491137 118.400597 -3.656245 0.932079 92.579636
[R_front_hand03_01]
6 87.286232 -22.307278 -0.143439 -0.386462 -0.239158 3.417176 90.091743
7 87.286232 -22.307278 -0.143439 -0.386747 -0.238696 3.554064 90.091743
[R_front_hand01_02]
6 71.020905 0.000060 0.000119 0.001777 0.001534 8.377220 71.020905
7 71.020905 0.000060 0.000119 0.001777 0.001534 8.377220 71.020905
[R_front_hand02_02]
6 71.020844 -0.000030 -0.000119 0.001777 0.001534 8.377220 71.020836
7 71.020844 -0.000030 -0.000119 0.001777 0.001534 8.377220 71.020836
[R_front_hand03_02]
6 71.020905 0.000000 0.000030 0.001777 0.001534 8.377220 71.020905
7 71.020905 0.000000 0.000030 0.001777 0.001534 8.377220 71.020905
[null_rope01_connect]
6 328.732483 0.000000 -0.000238 -158.082199 -72.517624 157.680008 328.732483
7 328.732483 0.000000 -0.000238 -159.693329 -74.181343 154.990265 328.732483
[Rope1_Seg01]
6 -0.000035 0.000032 0.000127 120.167252 -19.496044 127.619095 0.000136
7 -0.000034 0.000031 0.000122 118.372711 -16.241236 129.368134 0.000130
[Rope1_Seg02]
6 139.999863 -0.000179 0.000000 -5.733724 -8.412881 -10.750831 139.999863
7 139.999863 -0.000179 0.000000 -4.859247 -8.180426 -9.982198 139.999863
[Rope1_Seg03]
6 139.999924 0.000060 -0.000060 -6.177420 -12.449168 -20.296127 139.999924
7 139.999924 0.000060 -0.000060 -5.247453 -11.489060 -17.134407 139.999924
[Rope1_Seg04]
6 139.999924 -0.000060 -0.000119 -2.469552 -14.819082 -24.457951 139.999924
7 139.999924 -0.000060 -0.000119 -2.921551 -13.715090 -20.870663 139.999924
[Rope1_Seg05]
6 139.999832 0.000119 -0.000060 -0.006370 -2.659030 -16.769005 139.999832
7 139.999832 0.000119 -0.000060 -0.437462 -3.928415 -16.829693 139.999832
[Rope1_Seg06]
6 139.999954 0.000119 -0.000060 1.261055 7.053539 -22.898691 139.999954
7 139.999954 0.000119 -0.000060 1.139837 3.278827 -19.134277 139.999954
[Rope1_Seg07]
6 139.999985 0.000060 0.000000 7.418812 5.143539 -21.748730 139.999985
7 139.999985 0.000060 0.000000 4.040057 1.259934 -15.337185 139.999985
[Rope1_Seg09]
6 121.602913 0.000119 -0.000089 -89.793175 -1.359789 0.847147 121.602913
7 121.602913 0.000119 -0.000089 -89.793175 -1.359789 0.847147 121.602913
[L_mid_hand01]
6 103.859421 1.038730 8.195221 105.805779 -24.481556 -7.221896 104.187431
7 103.859421 1.038730 8.195221 110.537132 -45.036091 -15.378856 104.187431
[L_mid_hand02]
6 105.572853 -4.139662 -10.864139 -139.937881 21.329746 -22.797445 106.211075
7 105.572853 -4.139662 -10.864139 -149.285141 33.975391 -42.650131 106.211075
[L_mid_hand03]
6 104.641464 17.579376 -3.913581 -17.158249 7.718566 27.402493 106.179977
7 104.641464 17.579376 -3.913581 -13.222615 13.438178 48.591911 106.179977
[null_rope02_connect]
6 328.732849 0.000179 -0.000119 -162.978317 58.766457 11.608027 328.732849
7 328.732849 0.000179 -0.000119 -163.079926 56.727783 9.892058 328.732849
[Rope2_Seg01]
6 0.000067 0.000072 0.000000 -27.023766 29.330158 87.590248 0.000098
7 0.000061 0.000063 0.000000 -27.055103 24.313416 90.059860 0.000088
[Rope2_Seg02]
6 139.999741 -0.000060 -0.000119 0.073437 4.628675 -1.653587 139.999756
7 139.999741 -0.000060 -0.000119 -0.060938 4.928808 -2.144551 139.999756
[Rope2_Seg03]
6 140.000107 0.000030 0.000000 0.026358 5.148024 -1.873546 140.000107
7 140.000107 0.000030 0.000000 -0.099114 5.849249 -2.553960 140.000107
[Rope2_Seg04]
6 139.999802 0.000000 -0.000060 -0.426215 6.269234 -4.371572 139.999802
7 139.999802 0.000000 -0.000060 -0.757673 7.525962 -5.730626 139.999802
[Rope2_Seg05]
6 139.999985 -0.000060 0.000119 -0.032841 5.780582 -0.683376 139.999985
7 139.999985 -0.000060 0.000119 -0.128494 7.691968 -2.009643 139.999985
[Rope2_Seg06]
6 139.999893 -0.000030 -0.000119 -0.093448 2.739265 5.339279 139.999893
7 139.999893 -0.000030 -0.000119 -0.148509 3.849699 6.438040 139.999893
[Rope2_Seg07]
6 139.999893 0.000060 -0.000060 -0.128668 1.959935 3.373402 139.999893
7 139.999893 0.000060 -0.000060 -0.225347 2.647699 4.098403 139.999893
[Rope2_Seg09]
6 121.338966 0.000089 -0.000060 33.793236 -1.359788 -0.847141 121.338966
7 121.338966 0.000089 -0.000060 33.793236 -1.359788 -0.847141 121.338966
[R_mid_hand01]
6 104.680779 11.144459 -10.335981 -19.141027 44.296524 66.303490 105.778534
7 104.680779 11.144459 -10.335981 -16.212063 45.237247 70.462852 105.778534
[R_mid_hand02]
6 104.070427 2.443552 8.231699 53.541805 -65.331741 34.413143 104.424065
7 104.070427 2.443552 8.231699 49.067368 -67.749771 39.286453 104.424065
[R_mid_hand03]
6 106.028137 -11.221827 -5.996406 -176.243500 15.369824 -73.375038 106.788818
7 106.028137 -11.221827 -5.996406 -177.101105 15.551026 -76.585571 106.788818
[spine02]
6 129.756927 0.001550 0.000119 -0.047802 -4.291324 -7.207286 129.756927
7 129.756927 0.001550 0.000119 -0.060551 -4.313924 -7.028324 129.756927
[spine03]
6 78.704811 0.071413 -4.010236 0.087587 7.470322 -9.022269 78.806946
7 78.697685 0.072652 -4.079816 0.113485 7.341636 -8.776475 78.803406
[pelvis]
6 169.435242 0.051022 0.000000 0.014468 2.721490 -3.731235 169.435257
7 169.435242 0.051022 0.000000 0.019360 2.615075 -3.560290 169.435257
[null_rope03_connect]
6 -1.257226 -2.466202 137.391083 -52.127464 -82.983849 143.773590 137.418976
7 -1.257226 -2.466202 137.391083 -51.644138 -83.226387 142.559662 137.418976
[null_rope04_connect]
6 -1.259640 -2.480268 -137.844437 -52.127464 -82.983849 143.773590 137.872513
7 -1.259640 -2.480268 -137.844437 -51.644138 -83.226387 142.559662 137.872513
[Rope3_Seg01]
6 0.000000 0.000000 0.000000 -144.577164 64.780510 -83.092186 0.000000
7 0.000000 0.000000 0.000000 -120.282326 64.506966 -55.723873 0.000000
[Rope3_Seg02]
6 139.999924 -0.000119 0.000060 1.612970 14.254473 -24.257338 139.999924
7 139.999924 -0.000119 0.000060 -3.497709 15.518891 -24.806860 139.999924
[Rope3_Seg03]
6 139.999924 -0.000119 0.000119 -4.997186 12.831066 -27.939716 139.999924
7 139.999924 -0.000119 0.000119 -8.620015 13.778680 -25.045799 139.999924
[Rope3_Seg04]
6 139.999924 0.000119 0.000000 -5.215473 7.649357 -15.044771 139.999924
7 139.999924 0.000119 0.000000 -5.002615 7.546160 -10.123736 139.999924
[Rope3_Seg05]
6 139.999924 -0.000238 0.000060 0.432012 0.280936 2.020686 139.999924
7 139.999924 -0.000238 0.000060 1.234938 -0.094441 5.695805 139.999924
[Rope3_Seg06]
6 139.999893 -0.000119 -0.000060 2.392999 -4.151686 12.259359 139.999893
7 139.999893 -0.000119 -0.000060 2.216274 -3.931804 16.199833 139.999893
[Rope3_Seg07]
6 139.999771 0.000060 -0.000119 1.064811 -1.835323 8.227690 139.999771
7 139.999771 0.000060 -0.000119 0.564365 -0.922952 10.258748 139.999771
[Rope3_Seg08]
6 139.999985 -0.000060 0.000000 0.596364 -0.927793 5.434433 139.999985
7 139.999985 -0.000060 0.000000 0.072543 -0.448889 7.197189 139.999985
[Rope3_Seg09]
6 90.185997 -0.000179 -0.000060 89.793228 -1.359877 -0.847183 90.185997
7 90.185997 -0.000179 -0.000060 89.793228 -1.359877 -0.847183 90.185997
[R_rear_hand01]
6 103.366196 -6.073594 -10.757982 -161.551193 16.666374 -30.088671 104.101845
7 103.366196 -6.073594 -10.757982 -161.551193 16.666374 -30.088671 104.101845
[R_rear_hand02]
6 100.509819 12.039542 -7.992327 -34.280552 19.289745 28.875523 101.543350
7 100.509819 12.039542 -7.992327 -34.280552 19.289745 28.875523 101.543350
[R_rear_hand03]
6 101.539970 5.215704 5.435467 83.366440 -30.933914 7.284830 101.819031
7 101.539970 5.215704 5.435467 83.366440 -30.933914 7.284830 101.819031
[Rope4_Seg01]
6 0.000011 -0.000102 -0.000019 56.263168 48.971188 -96.483139 0.000104
7 0.000010 -0.000099 -0.000023 52.629063 45.893646 -100.500458 0.000102
[Rope4_Seg02]
6 139.999985 0.000060 0.000119 -5.347556 -18.630510 12.403074 139.999985
7 139.999985 0.000060 0.000119 -3.973020 -19.783337 11.359433 139.999985
[Rope4_Seg03]
6 139.999924 0.000000 -0.000238 -0.759670 -19.508745 9.416331 139.999924
7 139.999924 0.000000 -0.000238 0.661710 -18.219336 7.549931 139.999924
[Rope4_Seg04]
6 139.999985 0.000000 0.000119 1.700099 -9.889082 5.874566 139.999985
7 139.999985 0.000000 0.000119 1.505978 -5.710274 4.013031 139.999985
[Rope4_Seg05]
6 139.999802 -0.000060 -0.000119 0.986084 2.137051 4.993080 139.999802
7 139.999802 -0.000060 -0.000119 0.148584 6.244446 2.783745 139.999802
[Rope4_Seg06]
6 139.999924 0.000000 0.000060 0.673846 4.091566 5.085177 139.999924
7 139.999924 0.000000 0.000060 0.311116 7.548310 3.487273 139.999924
[Rope4_Seg07]
6 139.999802 0.000000 0.000000 0.399796 1.431170 4.528563 139.999802
7 139.999802 0.000000 0.000000 0.298179 5.714389 3.954045 139.999802
[Rope4_Seg08]
6 139.999924 0.000000 0.000119 -1.391142 1.091831 3.386992 139.999924
7 139.999924 0.000000 0.000119 -1.454603 3.605638 2.479831 139.999924
[Rope4_Seg09]
6 90.185791 0.000060 0.000060 -135.617828 2.228885 0.850567 90.185791
7 90.185791 0.000060 0.000060 -135.617828 2.228885 0.850567 90.185791
[L_rear_hand01]
6 101.696655 -8.392275 -7.654577 -35.083565 -17.618896 153.668625 102.329041
7 101.696655 -8.392275 -7.654577 -35.089657 -17.605751 153.690857 102.329041
[L_rear_hand02]
6 102.726799 -1.568258 5.773216 83.558121 28.017715 173.099945 102.900848
7 102.726799 -1.568258 5.773216 83.559700 27.993849 173.104446 102.900848
[L_rear_hand03]
6 104.552910 9.721220 -10.420293 -160.745407 -15.718760 -152.803848 105.519653
7 104.552910 9.721220 -10.420293 -160.739471 -15.710323 -152.827713 105.519653
